<svg xmlns="http://www.w3.org/2000/svg" xmlns:xlink="http://www.w3.org/1999/xlink" version="1.1" x="0px" y="0px" viewBox="0 0 24 24" style="enable-background:new 0 0 24 24;" xml:space="preserve"><g fill="white"><g><path d="M23.939,22.63c-0.671-1.227-2.818-2.542-4.543-3.598c-0.698-0.427-1.357-0.831-1.542-1.016    c-0.402-0.402-0.951-1.613-1.646-3.147c-0.36-0.795-0.773-1.707-1.257-2.716c-0.843-1.756-2.396-3.671-3.765-5.361    c-1.032-1.273-2.007-2.475-2.212-3.083C8.102,1.127,5.779,0.853,4.601,0.865C3.162,0.21,1.829-0.186,0.318,0.403    C0.129,0.477,0.003,0.658,0,0.861s0.117,0.388,0.304,0.467c0.41,0.174,0.697,0.58,1,1.009c0.362,0.512,0.794,1.124,1.533,1.396    C1.312,8.19,1.906,12.205,4.605,15.675c0.562,0.722,1.431,1.303,2.402,1.787c0.13,0.79-0.1,2.45-0.685,4.021l-1.469-1.469    c-0.195-0.195-0.512-0.195-0.707,0s-0.195,0.512,0,0.707l0.724,0.724l-2.249-0.562c-0.269-0.07-0.539,0.095-0.606,0.364    c-0.067,0.268,0.096,0.539,0.364,0.606l2.335,0.584l-1.372,0.457c-0.262,0.087-0.403,0.37-0.316,0.632    c0.07,0.209,0.265,0.342,0.474,0.342c0.052,0,0.105-0.008,0.158-0.026l2.923-0.974H8.5c0.276,0,0.5-0.224,0.5-0.5    s-0.224-0.5-0.5-0.5H7.246c0.507-1.35,0.806-2.849,0.794-3.941c1.153,0.471,2.354,0.832,3.331,1.121    c0.227,0.067,0.434,0.129,0.63,0.188v1.322l-1.276-0.638c-0.247-0.123-0.546-0.023-0.671,0.224    c-0.124,0.247-0.023,0.547,0.224,0.671l0.625,0.312L9.42,21.374c-0.272,0.045-0.457,0.303-0.411,0.575    c0.045,0.272,0.302,0.46,0.575,0.411l2.031-0.338l-0.061,0.122c-0.124,0.247-0.023,0.547,0.224,0.671    c0.072,0.036,0.148,0.053,0.223,0.053c0.184,0,0.36-0.101,0.448-0.276l0.19-0.38l0.509,0.509c0.098,0.098,0.226,0.146,0.354,0.146    c0.128,0,0.256-0.049,0.354-0.146c0.195-0.195,0.195-0.512,0-0.707l-0.854-0.854v-1.421c0.484,0.409,0.961,1.039,1.427,1.66    c0.888,1.184,1.807,2.409,3.049,2.467c0.268,0.013,0.589,0.019,0.942,0.019c0.869,0,1.589-0.019,2.205-0.049    c-1.024-0.725-2.066-1.64-3.025-2.486c-0.717-0.632-1.395-1.229-1.887-1.575c-0.226-0.159-0.28-0.471-0.122-0.697    c0.159-0.226,0.471-0.28,0.697-0.122c0.537,0.378,1.203,0.964,1.973,1.643c1.23,1.084,2.73,2.401,4.02,3.096    c1.57-0.212,1.664-0.548,1.704-0.709C24.017,22.87,24,22.74,23.939,22.63z M6.001,2.37c0.276,0,0.5,0.224,0.5,0.5    s-0.224,0.5-0.5,0.5s-0.5-0.224-0.5-0.5S5.725,2.37,6.001,2.37z M14.829,16.248c-0.483,0.419-1.17,0.646-1.929,0.646    c-0.149,0-0.302-0.009-0.456-0.027c-3.731-0.431-6.609-3.596-7.422-6.355C4.944,10.247,5.095,9.969,5.36,9.891    c0.271-0.079,0.543,0.074,0.621,0.338c0.619,2.1,3.069,5.24,6.578,5.645c0.661,0.076,1.248-0.063,1.615-0.381    c0.208-0.181,0.523-0.158,0.706,0.05C15.06,15.751,15.037,16.067,14.829,16.248z"/></g></g></svg>